<svg width="24" height="25" viewBox="0 0 24 25" fill="none" xmlns="http://www.w3.org/2000/svg">
<g clip-path="url(#clip0_1_579)">
<path fill-rule="evenodd" clip-rule="evenodd" d="M22.5256 22.2666L21.809 6.07745C21.8007 5.50004 21.5654 4.9491 21.154 4.54383C20.7426 4.13857 20.1882 3.91157 19.6108 3.91195H15.9648C15.8198 2.96334 15.3399 2.09803 14.6119 1.47283C13.8838 0.847621 12.956 0.503876 11.9963 0.503876C11.0367 0.503876 10.1088 0.847621 9.38081 1.47283C8.6528 2.09803 8.17283 2.96334 8.02786 3.91195H4.39039C3.81271 3.91125 3.25799 4.13811 2.84634 4.54341C2.43468 4.9487 2.19923 5.49983 2.19094 6.07745L1.47314 22.2666C1.47314 22.2799 1.47314 22.2945 1.47314 22.3078C1.47475 22.89 1.70722 23.4478 2.11956 23.8587C2.5319 24.2697 3.09043 24.5003 3.6726 24.5H20.3273C20.9093 24.5 21.4675 24.2692 21.8796 23.8583C22.2917 23.4474 22.524 22.8898 22.5256 22.3078C22.5268 22.2945 22.5256 22.2799 22.5256 22.2666ZM11.9975 2.36724C12.4614 2.36782 12.9127 2.51829 13.2842 2.79621C13.6556 3.07413 13.9273 3.46464 14.0588 3.90952H9.93632C10.0679 3.46474 10.3397 3.07435 10.7111 2.79645C11.0825 2.51856 11.5337 2.36802 11.9975 2.36724ZM20.3273 22.6352H3.6726C3.58763 22.6372 3.50526 22.6058 3.44316 22.5478C3.38106 22.4898 3.34416 22.4097 3.34038 22.3248L4.05696 6.1405C4.05696 6.12717 4.05696 6.11019 4.05696 6.09685C4.05728 6.05434 4.06596 6.0123 4.08253 5.97315C4.09909 5.93399 4.1232 5.89848 4.15349 5.86865C4.18378 5.83881 4.21964 5.81523 4.25904 5.79926C4.29844 5.78328 4.3406 5.77522 4.38312 5.77554H7.97451V9.18749C7.97451 9.31001 7.99864 9.43134 8.04553 9.54453C8.09242 9.65773 8.16114 9.76059 8.24778 9.84722C8.33442 9.93386 8.43727 10.0026 8.55047 10.0495C8.66367 10.0964 8.78499 10.1205 8.90752 10.1205C9.03004 10.1205 9.15137 10.0964 9.26457 10.0495C9.37776 10.0026 9.48062 9.93386 9.56726 9.84722C9.65389 9.76059 9.72262 9.65773 9.76951 9.54453C9.8164 9.43134 9.84053 9.31001 9.84053 9.18749V5.77554H14.1364V9.18749C14.1364 9.43494 14.2347 9.67225 14.4096 9.84722C14.5846 10.0222 14.8219 10.1205 15.0694 10.1205C15.3168 10.1205 15.5542 10.0222 15.7291 9.84722C15.9041 9.67225 16.0024 9.43494 16.0024 9.18749V5.77554H19.6108C19.6538 5.77458 19.6966 5.7822 19.7366 5.79795C19.7766 5.81371 19.8131 5.8373 19.844 5.86733C19.8748 5.89736 19.8993 5.93323 19.9161 5.97285C19.9329 6.01247 19.9416 6.05504 19.9418 6.09807C19.9418 6.1114 19.9418 6.12717 19.9418 6.1405L20.6584 22.3248C20.6543 22.4094 20.6174 22.4891 20.5557 22.547C20.4939 22.6049 20.412 22.6366 20.3273 22.6352Z" fill="#D51313"/>
</g>
<defs>
<clipPath id="clip0_1_579">
<rect width="24" height="24" fill="white" transform="translate(0 0.5)"/>
</clipPath>
</defs>
</svg>
