<svg width="150" height="23" viewBox="0 0 150 23" fill="none" xmlns="http://www.w3.org/2000/svg">
<g clip-path="url(#clip0_1_555)">
<path fill-rule="evenodd" clip-rule="evenodd" d="M95.0035 22.8103H104.399V17.8016H96.4084V0.113937H91.4338V19.3075C91.4338 21.2363 92.6871 22.8103 95.0035 22.8103ZM78.6267 22.8103H88.0262V17.8016H80.0375V0.113937H75.0582V19.3075C75.0582 21.2363 76.3127 22.8103 78.6267 22.8103ZM132.868 22.8103H134.895V7.52356C134.895 7.52356 141.855 19.6353 142.535 20.9215C143.217 22.2112 144.258 22.8091 145.542 22.8091H149.871V0.110413H145.275V15.4242L136.343 0.3148C136.343 0.3148 135.853 0.307752 133.191 0.307752C130.529 0.307752 130.23 1.69265 130.23 3.03644V20.4575C130.23 21.9047 131.315 22.8103 132.868 22.8103ZM30.483 19.7668C30.483 22.0186 32.1968 22.8103 33.9035 22.8103H36.1647V15.2374L37.2841 14.0722C37.2841 14.0722 42.1835 21.4971 42.6816 21.9152C43.1808 22.3334 43.4639 22.8115 44.6703 22.8115H50.4601L41.5269 11.0275C41.5269 11.0275 50.5552 1.07831 50.4589 1.07831H44.4283C43.5696 1.07831 42.9247 1.43188 42.5853 1.75726C42.247 2.08381 36.1635 8.4339 36.1635 8.4339V0.910342H30.483V19.7668ZM120.518 1.77135C120.141 0.734146 119.886 0.112762 119.886 0.112762H116.603C115.22 0.112762 114.387 0.75294 114.023 1.82069C112.729 5.62417 109.595 14.8345 107.995 19.6916C107.374 21.5793 106.984 22.8103 107.024 22.8103H112.166L113.788 17.4633H120.794C120.794 17.4633 122.36 22.8103 122.435 22.8103H127.983C128.125 22.8103 122.414 7.00554 120.518 1.77135ZM115.068 13.21L117.278 6.00005L119.538 13.21H115.068ZM65.5483 1.77135C65.1701 0.734146 64.9152 0.112762 64.9152 0.112762H61.6309C60.2495 0.112762 59.5576 0.574395 59.0549 2.24121C57.7569 6.04469 54.6241 14.8345 53.0255 19.6916C52.4029 21.5793 52.0141 22.8103 52.054 22.8103H57.1943L58.8188 17.4633H65.8243C65.8243 17.4633 67.3913 22.8103 67.4653 22.8103H73.0108C73.1517 22.8103 67.4418 7.00554 65.5483 1.77135ZM60.0956 13.21L62.3086 5.9977L64.5663 13.21H60.0956Z" fill="#D51313"/>
<path fill-rule="evenodd" clip-rule="evenodd" d="M19.4848 0.113937H0.129089V19.4685C0.129089 21.3126 1.62558 22.8115 3.47094 22.8115H22.8255V3.45461C22.8255 1.60925 21.329 0.113937 19.4848 0.113937ZM16.8325 12.8588V12.8729H12.8516C12.8516 12.8729 16.2122 15.2515 16.3849 15.3831C16.5576 15.5146 16.7444 15.7672 16.7444 16.1031V18.8506C16.7444 18.8882 11.4784 15.3596 11.4784 15.3596V15.3584L11.4749 15.3596C11.4749 15.3596 6.21019 18.8894 6.21019 18.8506V16.1031C6.21019 15.7683 6.39814 15.5146 6.56963 15.3831C6.74231 15.2515 10.1029 12.8729 10.1029 12.8729H6.96901C6.46274 12.8729 6.12092 12.5851 6.12092 12.161V10.0643H6.1221V10.049H10.1029C10.1029 10.049 6.74231 7.67039 6.56963 7.53883C6.39696 7.40727 6.21019 7.15355 6.21019 6.8176V4.07012C6.21019 4.03253 11.4761 7.56232 11.4761 7.56232V7.5635L11.4784 7.56232C11.4784 7.56232 16.7432 4.03253 16.7432 4.07012V6.8176C16.7432 7.15237 16.5552 7.40609 16.3837 7.53883C16.2122 7.67039 12.8504 10.049 12.8504 10.049H15.9844C16.4906 10.049 16.8325 10.338 16.8325 10.7609V12.8588Z" fill="#D51313"/>
</g>
<defs>
<clipPath id="clip0_1_555">
<rect width="150" height="22.9219" fill="white"/>
</clipPath>
</defs>
</svg>
